<svg width="3858" height="803" viewBox="0 0 3858 803" fill="none" xmlns="http://www.w3.org/2000/svg">
<path d="M979.11 460.64C953.103 460.64 927.88 457.193 903.44 450.3C879.313 443.093 859.887 433.85 845.16 422.57L871.01 365.23C885.11 375.57 901.873 383.873 921.3 390.14C940.727 396.407 960.153 399.54 979.58 399.54C1001.2 399.54 1017.18 396.407 1027.52 390.14C1037.86 383.56 1043.03 374.943 1043.03 364.29C1043.03 356.457 1039.9 350.033 1033.63 345.02C1027.68 339.693 1019.84 335.463 1010.13 332.33C1000.73 329.197 987.883 325.75 971.59 321.99C946.523 316.037 926 310.083 910.02 304.13C894.04 298.177 880.253 288.62 868.66 275.46C857.38 262.3 851.74 244.753 851.74 222.82C851.74 203.707 856.91 186.473 867.25 171.12C877.59 155.453 893.1 143.077 913.78 133.99C934.773 124.903 960.31 120.36 990.39 120.36C1011.38 120.36 1031.91 122.867 1051.96 127.88C1072.01 132.893 1089.56 140.1 1104.6 149.5L1081.1 207.31C1050.71 190.077 1020.31 181.46 989.92 181.46C968.613 181.46 952.79 184.907 942.45 191.8C932.423 198.693 927.41 207.78 927.41 219.06C927.41 230.34 933.207 238.8 944.8 244.44C956.707 249.767 974.723 255.093 998.85 260.42C1023.92 266.373 1044.44 272.327 1060.42 278.28C1076.4 284.233 1090.03 293.633 1101.31 306.48C1112.9 319.327 1118.7 336.717 1118.7 358.65C1118.7 377.45 1113.37 394.683 1102.72 410.35C1092.38 425.703 1076.71 437.923 1055.72 447.01C1034.73 456.097 1009.19 460.64 979.11 460.64ZM1285.88 458.76C1259.24 458.76 1235.27 453.277 1213.97 442.31C1192.97 431.03 1176.52 415.52 1164.62 395.78C1152.71 376.04 1146.76 353.637 1146.76 328.57C1146.76 303.503 1152.71 281.1 1164.62 261.36C1176.52 241.62 1192.97 226.267 1213.97 215.3C1235.27 204.02 1259.24 198.38 1285.88 198.38C1312.51 198.38 1336.32 204.02 1357.32 215.3C1378.31 226.267 1394.76 241.62 1406.67 261.36C1418.57 281.1 1424.53 303.503 1424.53 328.57C1424.53 353.637 1418.57 376.04 1406.67 395.78C1394.76 415.52 1378.31 431.03 1357.32 442.31C1336.32 453.277 1312.51 458.76 1285.88 458.76ZM1285.88 398.6C1304.68 398.6 1320.03 392.333 1331.94 379.8C1344.16 366.953 1350.27 349.877 1350.27 328.57C1350.27 307.263 1344.16 290.343 1331.94 277.81C1320.03 264.963 1304.68 258.54 1285.88 258.54C1267.08 258.54 1251.57 264.963 1239.35 277.81C1227.13 290.343 1221.02 307.263 1221.02 328.57C1221.02 349.877 1227.13 366.953 1239.35 379.8C1251.57 392.333 1267.08 398.6 1285.88 398.6ZM1623 198.38C1646.5 198.38 1667.8 203.863 1686.92 214.83C1706.34 225.483 1721.54 240.68 1732.51 260.42C1743.47 279.847 1748.96 302.563 1748.96 328.57C1748.96 354.577 1743.47 377.45 1732.51 397.19C1721.54 416.617 1706.34 431.813 1686.92 442.78C1667.8 453.433 1646.5 458.76 1623 458.76C1588.22 458.76 1561.74 447.793 1543.57 425.86V455H1473.54V106.26H1546.86V228.93C1565.34 208.563 1590.72 198.38 1623 198.38ZM1610.31 398.6C1629.11 398.6 1644.46 392.333 1656.37 379.8C1668.59 366.953 1674.7 349.877 1674.7 328.57C1674.7 307.263 1668.59 290.343 1656.37 277.81C1644.46 264.963 1629.11 258.54 1610.31 258.54C1591.51 258.54 1576 264.963 1563.78 277.81C1551.87 290.343 1545.92 307.263 1545.92 328.57C1545.92 349.877 1551.87 366.953 1563.78 379.8C1576 392.333 1591.51 398.6 1610.31 398.6ZM2054.66 202.14V455H1984.63V425.86C1966.45 447.793 1940.13 458.76 1905.67 458.76C1881.85 458.76 1860.23 453.433 1840.81 442.78C1821.69 432.127 1806.65 416.93 1795.69 397.19C1784.72 377.45 1779.24 354.577 1779.24 328.57C1779.24 302.563 1784.72 279.69 1795.69 259.95C1806.65 240.21 1821.69 225.013 1840.81 214.36C1860.23 203.707 1881.85 198.38 1905.67 198.38C1937.94 198.38 1963.16 208.563 1981.34 228.93V202.14H2054.66ZM1918.36 398.6C1936.84 398.6 1952.2 392.333 1964.42 379.8C1976.64 366.953 1982.75 349.877 1982.75 328.57C1982.75 307.263 1976.64 290.343 1964.42 277.81C1952.2 264.963 1936.84 258.54 1918.36 258.54C1899.56 258.54 1884.05 264.963 1871.83 277.81C1859.61 290.343 1853.5 307.263 1853.5 328.57C1853.5 349.877 1859.61 366.953 1871.83 379.8C1884.05 392.333 1899.56 398.6 1918.36 398.6ZM2274.82 442.78C2267.61 448.107 2258.68 452.18 2248.03 455C2237.69 457.507 2226.88 458.76 2215.6 458.76C2185.21 458.76 2161.86 451.083 2145.57 435.73C2129.28 420.377 2121.13 397.817 2121.13 368.05V146.21H2194.45V207.78H2256.96V264.18H2194.45V367.11C2194.45 377.763 2197.11 386.067 2202.44 392.02C2207.77 397.66 2215.44 400.48 2225.47 400.48C2236.75 400.48 2246.78 397.347 2255.55 391.08L2274.82 442.78ZM2562.61 460.64C2536.6 460.64 2511.38 457.193 2486.94 450.3C2462.81 443.093 2443.38 433.85 2428.66 422.57L2454.51 365.23C2468.61 375.57 2485.37 383.873 2504.8 390.14C2524.22 396.407 2543.65 399.54 2563.08 399.54C2584.7 399.54 2600.68 396.407 2611.02 390.14C2621.36 383.56 2626.53 374.943 2626.53 364.29C2626.53 356.457 2623.39 350.033 2617.13 345.02C2611.17 339.693 2603.34 335.463 2593.63 332.33C2584.23 329.197 2571.38 325.75 2555.09 321.99C2530.02 316.037 2509.5 310.083 2493.52 304.13C2477.54 298.177 2463.75 288.62 2452.16 275.46C2440.88 262.3 2435.24 244.753 2435.24 222.82C2435.24 203.707 2440.41 186.473 2450.75 171.12C2461.09 155.453 2476.6 143.077 2497.28 133.99C2518.27 124.903 2543.81 120.36 2573.89 120.36C2594.88 120.36 2615.4 122.867 2635.46 127.88C2655.51 132.893 2673.06 140.1 2688.1 149.5L2664.6 207.31C2634.2 190.077 2603.81 181.46 2573.42 181.46C2552.11 181.46 2536.29 184.907 2525.95 191.8C2515.92 198.693 2510.91 207.78 2510.91 219.06C2510.91 230.34 2516.7 238.8 2528.3 244.44C2540.2 249.767 2558.22 255.093 2582.35 260.42C2607.41 266.373 2627.94 272.327 2643.92 278.28C2659.9 284.233 2673.53 293.633 2684.81 306.48C2696.4 319.327 2702.2 336.717 2702.2 358.65C2702.2 377.45 2696.87 394.683 2686.22 410.35C2675.88 425.703 2660.21 437.923 2639.22 447.01C2618.22 456.097 2592.69 460.64 2562.61 460.64ZM2876.42 400.01C2889.58 400.01 2901.18 398.13 2911.2 394.37C2921.54 390.297 2931.1 384.03 2939.87 375.57L2978.88 417.87C2955.07 445.13 2920.29 458.76 2874.54 458.76C2846.03 458.76 2820.81 453.277 2798.87 442.31C2776.94 431.03 2760.02 415.52 2748.11 395.78C2736.21 376.04 2730.25 353.637 2730.25 328.57C2730.25 303.817 2736.05 281.57 2747.64 261.83C2759.55 241.777 2775.69 226.267 2796.05 215.3C2816.73 204.02 2839.92 198.38 2865.61 198.38C2889.74 198.38 2911.67 203.55 2931.41 213.89C2951.15 223.917 2966.82 238.643 2978.41 258.07C2990.32 277.183 2996.27 299.9 2996.27 326.22L2809.21 362.41C2814.54 374.943 2822.84 384.343 2834.12 390.61C2845.72 396.877 2859.82 400.01 2876.42 400.01ZM2865.61 253.84C2847.13 253.84 2832.09 259.793 2820.49 271.7C2808.9 283.607 2802.79 300.057 2802.16 321.05L2925.3 297.08C2921.86 283.92 2914.81 273.423 2904.15 265.59C2893.5 257.757 2880.65 253.84 2865.61 253.84ZM3199.25 198.38C3230.58 198.38 3255.8 207.78 3274.92 226.58C3294.34 245.38 3304.06 273.267 3304.06 310.24V455H3230.74V321.52C3230.74 301.467 3226.35 286.583 3217.58 276.87C3208.8 266.843 3196.11 261.83 3179.51 261.83C3161.02 261.83 3146.29 267.627 3135.33 279.22C3124.36 290.5 3118.88 307.42 3118.88 329.98V455H3045.56V106.26H3118.88V228.46C3128.59 218.747 3140.34 211.383 3154.13 206.37C3167.91 201.043 3182.95 198.38 3199.25 198.38ZM3629.89 202.14V455H3559.86V425.86C3541.69 447.793 3515.37 458.76 3480.9 458.76C3457.09 458.76 3435.47 453.433 3416.04 442.78C3396.93 432.127 3381.89 416.93 3370.92 397.19C3359.95 377.45 3354.47 354.577 3354.47 328.57C3354.47 302.563 3359.95 279.69 3370.92 259.95C3381.89 240.21 3396.93 225.013 3416.04 214.36C3435.47 203.707 3457.09 198.38 3480.9 198.38C3513.17 198.38 3538.4 208.563 3556.57 228.93V202.14H3629.89ZM3493.59 398.6C3512.08 398.6 3527.43 392.333 3539.65 379.8C3551.87 366.953 3557.98 349.877 3557.98 328.57C3557.98 307.263 3551.87 290.343 3539.65 277.81C3527.43 264.963 3512.08 258.54 3493.59 258.54C3474.79 258.54 3459.28 264.963 3447.06 277.81C3434.84 290.343 3428.73 307.263 3428.73 328.57C3428.73 349.877 3434.84 366.953 3447.06 379.8C3459.28 392.333 3474.79 398.6 3493.59 398.6ZM3850.05 442.78C3842.85 448.107 3833.92 452.18 3823.26 455C3812.92 457.507 3802.11 458.76 3790.83 458.76C3760.44 458.76 3737.1 451.083 3720.8 435.73C3704.51 420.377 3696.36 397.817 3696.36 368.05V146.21H3769.68V207.78H3832.19V264.18H3769.68V367.11C3769.68 377.763 3772.35 386.067 3777.67 392.02C3783 397.66 3790.68 400.48 3800.7 400.48C3811.98 400.48 3822.01 397.347 3830.78 391.08L3850.05 442.78Z" fill="#3B3B3B"/>
<path d="M860.2 733.6C856.067 733.6 852.867 732.467 850.6 730.2C848.467 727.8 847.4 724.533 847.4 720.4V602.6C847.4 598.333 848.467 595.067 850.6 592.8C852.867 590.533 856.067 589.4 860.2 589.4C864.333 589.4 867.467 590.533 869.6 592.8C871.867 595.067 873 598.333 873 602.6V649.8H945.6V602.6C945.6 598.333 946.667 595.067 948.8 592.8C951.067 590.533 954.267 589.4 958.4 589.4C962.533 589.4 965.667 590.533 967.8 592.8C970.067 595.067 971.2 598.333 971.2 602.6V720.4C971.2 724.533 970.067 727.8 967.8 730.2C965.667 732.467 962.533 733.6 958.4 733.6C954.267 733.6 951.067 732.467 948.8 730.2C946.667 727.8 945.6 724.533 945.6 720.4V671.2H873V720.4C873 724.533 871.933 727.8 869.8 730.2C867.667 732.467 864.467 733.6 860.2 733.6ZM1012.09 733.4C1008.09 733.4 1005.02 732.2 1002.89 729.8C1000.75 727.4 999.688 724.067 999.688 719.8V646.4C999.688 642 1000.75 638.667 1002.89 636.4C1005.02 634 1008.09 632.8 1012.09 632.8C1016.09 632.8 1019.15 634 1021.29 636.4C1023.55 638.667 1024.69 642 1024.69 646.4V719.8C1024.69 724.067 1023.62 727.4 1021.49 729.8C1019.35 732.2 1016.22 733.4 1012.09 733.4ZM1012.09 614.2C1007.42 614.2 1003.75 613.067 1001.09 610.8C998.554 608.4 997.288 605.133 997.288 601C997.288 596.733 998.554 593.467 1001.09 591.2C1003.75 588.933 1007.42 587.8 1012.09 587.8C1016.89 587.8 1020.55 588.933 1023.09 591.2C1025.62 593.467 1026.89 596.733 1026.89 601C1026.89 605.133 1025.62 608.4 1023.09 610.8C1020.55 613.067 1016.89 614.2 1012.09 614.2ZM1088.26 734C1079.73 734 1072.2 731.933 1065.66 727.8C1059.26 723.667 1054.26 717.8 1050.66 710.2C1047.06 702.467 1045.26 693.4 1045.26 683C1045.26 672.467 1047.06 663.467 1050.66 656C1054.26 648.4 1059.26 642.533 1065.66 638.4C1072.2 634.267 1079.73 632.2 1088.26 632.2C1096.4 632.2 1103.46 634.2 1109.46 638.2C1115.6 642.2 1119.73 647.467 1121.86 654H1119.66V602C1119.66 597.867 1120.73 594.733 1122.86 592.6C1125 590.467 1128.06 589.4 1132.06 589.4C1136.06 589.4 1139.13 590.467 1141.26 592.6C1143.53 594.733 1144.66 597.867 1144.66 602V720.8C1144.66 724.933 1143.6 728.133 1141.46 730.4C1139.33 732.533 1136.26 733.6 1132.26 733.6C1128.26 733.6 1125.2 732.533 1123.06 730.4C1120.93 728.133 1119.86 724.933 1119.86 720.8V705.2L1122.06 711.2C1120.06 718.133 1116 723.667 1109.86 727.8C1103.73 731.933 1096.53 734 1088.26 734ZM1095.26 715C1100.2 715 1104.53 713.8 1108.26 711.4C1112 709 1114.86 705.467 1116.86 700.8C1119 696 1120.06 690.067 1120.06 683C1120.06 672.333 1117.8 664.4 1113.26 659.2C1108.73 653.867 1102.73 651.2 1095.26 651.2C1090.33 651.2 1086 652.4 1082.26 654.8C1078.53 657.067 1075.6 660.6 1073.46 665.4C1071.46 670.067 1070.46 675.933 1070.46 683C1070.46 693.533 1072.73 701.533 1077.26 707C1081.8 712.333 1087.8 715 1095.26 715ZM1205.99 734C1197.85 734 1191.12 732.533 1185.79 729.6C1180.45 726.533 1176.45 722 1173.79 716C1171.25 710 1169.99 702.533 1169.99 693.6V645.2C1169.99 640.933 1171.05 637.8 1173.19 635.8C1175.32 633.667 1178.39 632.6 1182.39 632.6C1186.39 632.6 1189.45 633.667 1191.59 635.8C1193.85 637.8 1194.99 640.933 1194.99 645.2V694C1194.99 700.933 1196.39 706.067 1199.19 709.4C1201.99 712.733 1206.45 714.4 1212.59 714.4C1219.25 714.4 1224.72 712.133 1228.99 707.6C1233.25 702.933 1235.39 696.8 1235.39 689.2V645.2C1235.39 640.933 1236.45 637.8 1238.59 635.8C1240.72 633.667 1243.79 632.6 1247.79 632.6C1251.79 632.6 1254.85 633.667 1256.99 635.8C1259.25 637.8 1260.39 640.933 1260.39 645.2V720.8C1260.39 729.333 1256.32 733.6 1248.19 733.6C1244.32 733.6 1241.32 732.533 1239.19 730.4C1237.05 728.133 1235.99 724.933 1235.99 720.8V705.6L1238.79 711.6C1235.99 718.8 1231.72 724.333 1225.99 728.2C1220.39 732.067 1213.72 734 1205.99 734ZM1298.81 769.6C1294.81 769.6 1291.74 768.533 1289.61 766.4C1287.47 764.267 1286.41 761.133 1286.41 757V645.2C1286.41 641.067 1287.47 637.933 1289.61 635.8C1291.74 633.667 1294.74 632.6 1298.61 632.6C1302.61 632.6 1305.67 633.667 1307.81 635.8C1309.94 637.933 1311.01 641.067 1311.01 645.2V660.8L1308.81 654.8C1310.81 648 1314.87 642.533 1321.01 638.4C1327.27 634.267 1334.54 632.2 1342.81 632.2C1351.34 632.2 1358.81 634.267 1365.21 638.4C1371.74 642.533 1376.81 648.4 1380.41 656C1384.01 663.467 1385.81 672.467 1385.81 683C1385.81 693.4 1384.01 702.467 1380.41 710.2C1376.81 717.8 1371.81 723.667 1365.41 727.8C1359.01 731.933 1351.47 734 1342.81 734C1334.67 734 1327.54 732 1321.41 728C1315.27 723.867 1311.14 718.533 1309.01 712H1311.41V757C1311.41 761.133 1310.27 764.267 1308.01 766.4C1305.87 768.533 1302.81 769.6 1298.81 769.6ZM1335.81 715C1340.74 715 1345.07 713.8 1348.81 711.4C1352.54 709 1355.41 705.467 1357.41 700.8C1359.54 696 1360.61 690.067 1360.61 683C1360.61 672.333 1358.34 664.4 1353.81 659.2C1349.27 653.867 1343.27 651.2 1335.81 651.2C1330.87 651.2 1326.54 652.4 1322.81 654.8C1319.07 657.067 1316.14 660.6 1314.01 665.4C1312.01 670.067 1311.01 675.933 1311.01 683C1311.01 693.533 1313.27 701.533 1317.81 707C1322.34 712.333 1328.34 715 1335.81 715ZM2120.94 733.6C2116.81 733.6 2113.61 732.467 2111.34 730.2C2109.21 727.8 2108.14 724.533 2108.14 720.4V602.6C2108.14 598.333 2109.21 595.067 2111.34 592.8C2113.61 590.533 2116.81 589.4 2120.94 589.4C2125.08 589.4 2128.21 590.533 2130.34 592.8C2132.61 595.067 2133.74 598.333 2133.74 602.6V649.8H2206.34V602.6C2206.34 598.333 2207.41 595.067 2209.54 592.8C2211.81 590.533 2215.01 589.4 2219.14 589.4C2223.28 589.4 2226.41 590.533 2228.54 592.8C2230.81 595.067 2231.94 598.333 2231.94 602.6V720.4C2231.94 724.533 2230.81 727.8 2228.54 730.2C2226.41 732.467 2223.28 733.6 2219.14 733.6C2215.01 733.6 2211.81 732.467 2209.54 730.2C2207.41 727.8 2206.34 724.533 2206.34 720.4V671.2H2133.74V720.4C2133.74 724.533 2132.68 727.8 2130.54 730.2C2128.41 732.467 2125.21 733.6 2120.94 733.6ZM2272.83 733.4C2268.83 733.4 2265.76 732.2 2263.63 729.8C2261.5 727.4 2260.43 724.067 2260.43 719.8V646.4C2260.43 642 2261.5 638.667 2263.63 636.4C2265.76 634 2268.83 632.8 2272.83 632.8C2276.83 632.8 2279.9 634 2282.03 636.4C2284.3 638.667 2285.43 642 2285.43 646.4V719.8C2285.43 724.067 2284.36 727.4 2282.23 729.8C2280.1 732.2 2276.96 733.4 2272.83 733.4ZM2272.83 614.2C2268.16 614.2 2264.5 613.067 2261.83 610.8C2259.3 608.4 2258.03 605.133 2258.03 601C2258.03 596.733 2259.3 593.467 2261.83 591.2C2264.5 588.933 2268.16 587.8 2272.83 587.8C2277.63 587.8 2281.3 588.933 2283.83 591.2C2286.36 593.467 2287.63 596.733 2287.63 601C2287.63 605.133 2286.36 608.4 2283.83 610.8C2281.3 613.067 2277.63 614.2 2272.83 614.2ZM2349.01 734C2340.47 734 2332.94 731.933 2326.41 727.8C2320.01 723.667 2315.01 717.8 2311.41 710.2C2307.81 702.467 2306.01 693.4 2306.01 683C2306.01 672.467 2307.81 663.467 2311.41 656C2315.01 648.4 2320.01 642.533 2326.41 638.4C2332.94 634.267 2340.47 632.2 2349.01 632.2C2357.14 632.2 2364.21 634.2 2370.21 638.2C2376.34 642.2 2380.47 647.467 2382.61 654H2380.41V602C2380.41 597.867 2381.47 594.733 2383.61 592.6C2385.74 590.467 2388.81 589.4 2392.81 589.4C2396.81 589.4 2399.87 590.467 2402.01 592.6C2404.27 594.733 2405.41 597.867 2405.41 602V720.8C2405.41 724.933 2404.34 728.133 2402.21 730.4C2400.07 732.533 2397.01 733.6 2393.01 733.6C2389.01 733.6 2385.94 732.533 2383.81 730.4C2381.67 728.133 2380.61 724.933 2380.61 720.8V705.2L2382.81 711.2C2380.81 718.133 2376.74 723.667 2370.61 727.8C2364.47 731.933 2357.27 734 2349.01 734ZM2356.01 715C2360.94 715 2365.27 713.8 2369.01 711.4C2372.74 709 2375.61 705.467 2377.61 700.8C2379.74 696 2380.81 690.067 2380.81 683C2380.81 672.333 2378.54 664.4 2374.01 659.2C2369.47 653.867 2363.47 651.2 2356.01 651.2C2351.07 651.2 2346.74 652.4 2343.01 654.8C2339.27 657.067 2336.34 660.6 2334.21 665.4C2332.21 670.067 2331.21 675.933 2331.21 683C2331.21 693.533 2333.47 701.533 2338.01 707C2342.54 712.333 2348.54 715 2356.01 715ZM2466.73 734C2458.59 734 2451.86 732.533 2446.53 729.6C2441.19 726.533 2437.19 722 2434.53 716C2431.99 710 2430.73 702.533 2430.73 693.6V645.2C2430.73 640.933 2431.79 637.8 2433.93 635.8C2436.06 633.667 2439.13 632.6 2443.13 632.6C2447.13 632.6 2450.19 633.667 2452.33 635.8C2454.59 637.8 2455.73 640.933 2455.73 645.2V694C2455.73 700.933 2457.13 706.067 2459.93 709.4C2462.73 712.733 2467.19 714.4 2473.33 714.4C2479.99 714.4 2485.46 712.133 2489.73 707.6C2493.99 702.933 2496.13 696.8 2496.13 689.2V645.2C2496.13 640.933 2497.19 637.8 2499.33 635.8C2501.46 633.667 2504.53 632.6 2508.53 632.6C2512.53 632.6 2515.59 633.667 2517.73 635.8C2519.99 637.8 2521.13 640.933 2521.13 645.2V720.8C2521.13 729.333 2517.06 733.6 2508.93 733.6C2505.06 733.6 2502.06 732.533 2499.93 730.4C2497.79 728.133 2496.73 724.933 2496.73 720.8V705.6L2499.53 711.6C2496.73 718.8 2492.46 724.333 2486.73 728.2C2481.13 732.067 2474.46 734 2466.73 734ZM2559.55 769.6C2555.55 769.6 2552.48 768.533 2550.35 766.4C2548.22 764.267 2547.15 761.133 2547.15 757V645.2C2547.15 641.067 2548.22 637.933 2550.35 635.8C2552.48 633.667 2555.48 632.6 2559.35 632.6C2563.35 632.6 2566.42 633.667 2568.55 635.8C2570.68 637.933 2571.75 641.067 2571.75 645.2V660.8L2569.55 654.8C2571.55 648 2575.62 642.533 2581.75 638.4C2588.02 634.267 2595.28 632.2 2603.55 632.2C2612.08 632.2 2619.55 634.267 2625.95 638.4C2632.48 642.533 2637.55 648.4 2641.15 656C2644.75 663.467 2646.55 672.467 2646.55 683C2646.55 693.4 2644.75 702.467 2641.15 710.2C2637.55 717.8 2632.55 723.667 2626.15 727.8C2619.75 731.933 2612.22 734 2603.55 734C2595.42 734 2588.28 732 2582.15 728C2576.02 723.867 2571.88 718.533 2569.75 712H2572.15V757C2572.15 761.133 2571.02 764.267 2568.75 766.4C2566.62 768.533 2563.55 769.6 2559.55 769.6ZM2596.55 715C2601.48 715 2605.82 713.8 2609.55 711.4C2613.28 709 2616.15 705.467 2618.15 700.8C2620.28 696 2621.35 690.067 2621.35 683C2621.35 672.333 2619.08 664.4 2614.55 659.2C2610.02 653.867 2604.02 651.2 2596.55 651.2C2591.62 651.2 2587.28 652.4 2583.55 654.8C2579.82 657.067 2576.88 660.6 2574.75 665.4C2572.75 670.067 2571.75 675.933 2571.75 683C2571.75 693.533 2574.02 701.533 2578.55 707C2583.08 712.333 2589.08 715 2596.55 715Z" fill="#3B3B3B"/>
<path d="M1511.63 734C1505.76 734 1499.89 733.533 1494.03 732.6C1488.16 731.8 1482.63 730.533 1477.43 728.8C1472.23 726.933 1467.56 724.667 1463.43 722C1461.03 720.4 1459.36 718.467 1458.43 716.2C1457.49 713.933 1457.16 711.733 1457.43 709.6C1457.83 707.333 1458.69 705.4 1460.03 703.8C1461.49 702.067 1463.29 701 1465.43 700.6C1467.56 700.2 1469.89 700.8 1472.43 702.4C1478.29 705.867 1484.49 708.4 1491.03 710C1497.56 711.6 1504.43 712.4 1511.63 712.4C1522.16 712.4 1529.83 710.667 1534.63 707.2C1539.43 703.6 1541.83 699 1541.83 693.4C1541.83 688.733 1540.09 685.067 1536.63 682.4C1533.29 679.733 1527.49 677.533 1519.23 675.8L1497.23 671.2C1484.56 668.533 1475.09 664.067 1468.83 657.8C1462.69 651.4 1459.63 643 1459.63 632.6C1459.63 626.067 1460.96 620.133 1463.63 614.8C1466.29 609.467 1470.03 604.867 1474.83 601C1479.76 597.133 1485.56 594.2 1492.23 592.2C1499.03 590.067 1506.49 589 1514.63 589C1522.63 589 1530.23 590 1537.43 592C1544.63 594 1551.09 596.933 1556.83 600.8C1558.96 602.267 1560.36 604.067 1561.03 606.2C1561.83 608.333 1562.03 610.467 1561.63 612.6C1561.23 614.6 1560.29 616.333 1558.83 617.8C1557.36 619.267 1555.49 620.133 1553.22 620.4C1551.09 620.667 1548.63 620 1545.83 618.4C1540.89 615.6 1535.89 613.6 1530.83 612.4C1525.76 611.2 1520.29 610.6 1514.43 610.6C1508.29 610.6 1503.03 611.467 1498.63 613.2C1494.23 614.933 1490.83 617.4 1488.43 620.6C1486.16 623.667 1485.03 627.333 1485.03 631.6C1485.03 636.4 1486.63 640.267 1489.83 643.2C1493.03 646 1498.49 648.2 1506.23 649.8L1528.03 654.4C1541.23 657.2 1551.03 661.6 1557.43 667.6C1563.96 673.6 1567.23 681.6 1567.23 691.6C1567.23 698 1565.89 703.8 1563.23 709C1560.69 714.2 1556.96 718.667 1552.03 722.4C1547.23 726.133 1541.43 729 1534.63 731C1527.83 733 1520.16 734 1511.63 734ZM1635 734C1623.93 734 1614.4 731.933 1606.4 727.8C1598.4 723.667 1592.2 717.8 1587.8 710.2C1583.53 702.6 1581.4 693.6 1581.4 683.2C1581.4 673.067 1583.46 664.2 1587.6 656.6C1591.86 649 1597.66 643.067 1605 638.8C1612.46 634.4 1620.93 632.2 1630.4 632.2C1637.33 632.2 1643.53 633.333 1649 635.6C1654.6 637.867 1659.33 641.133 1663.2 645.4C1667.2 649.667 1670.2 654.867 1672.2 661C1674.33 667 1675.4 673.8 1675.4 681.4C1675.4 683.8 1674.53 685.667 1672.8 687C1671.2 688.2 1668.86 688.8 1665.8 688.8H1601.6V674.4H1657.8L1654.6 677.4C1654.6 671.267 1653.66 666.133 1651.8 662C1650.06 657.867 1647.46 654.733 1644 652.6C1640.66 650.333 1636.46 649.2 1631.4 649.2C1625.8 649.2 1621 650.533 1617 653.2C1613.13 655.733 1610.13 659.4 1608 664.2C1606 668.867 1605 674.467 1605 681V682.4C1605 693.333 1607.53 701.533 1612.6 707C1617.8 712.333 1625.4 715 1635.4 715C1638.86 715 1642.73 714.6 1647 713.8C1651.4 712.867 1655.53 711.333 1659.4 709.2C1662.2 707.6 1664.66 706.933 1666.8 707.2C1668.93 707.333 1670.6 708.067 1671.8 709.4C1673.13 710.733 1673.93 712.4 1674.2 714.4C1674.46 716.267 1674.06 718.2 1673 720.2C1672.06 722.2 1670.4 723.933 1668 725.4C1663.33 728.333 1657.93 730.533 1651.8 732C1645.8 733.333 1640.2 734 1635 734ZM1707.6 733.6C1703.6 733.6 1700.53 732.533 1698.4 730.4C1696.26 728.133 1695.2 724.933 1695.2 720.8V602C1695.2 597.867 1696.26 594.733 1698.4 592.6C1700.53 590.467 1703.6 589.4 1707.6 589.4C1711.6 589.4 1714.66 590.467 1716.8 592.6C1719.06 594.733 1720.2 597.867 1720.2 602V653.8H1717.4C1720.33 646.733 1724.86 641.4 1731 637.8C1737.26 634.067 1744.33 632.2 1752.2 632.2C1760.06 632.2 1766.53 633.667 1771.6 636.6C1776.66 639.533 1780.46 644 1783 650C1785.53 655.867 1786.8 663.333 1786.8 672.4V720.8C1786.8 724.933 1785.73 728.133 1783.6 730.4C1781.46 732.533 1778.4 733.6 1774.4 733.6C1770.4 733.6 1767.26 732.533 1765 730.4C1762.86 728.133 1761.8 724.933 1761.8 720.8V673.6C1761.8 666 1760.33 660.467 1757.4 657C1754.6 653.533 1750.2 651.8 1744.2 651.8C1736.86 651.8 1731 654.133 1726.6 658.8C1722.33 663.333 1720.2 669.4 1720.2 677V720.8C1720.2 729.333 1716 733.6 1707.6 733.6ZM1844.39 734C1837.32 734 1830.99 732.667 1825.39 730C1819.92 727.2 1815.59 723.467 1812.39 718.8C1809.32 714.133 1807.79 708.867 1807.79 703C1807.79 695.8 1809.65 690.133 1813.39 686C1817.12 681.733 1823.19 678.667 1831.59 676.8C1839.99 674.933 1851.25 674 1865.39 674H1875.39V688.4H1865.59C1857.32 688.4 1850.72 688.8 1845.79 689.6C1840.85 690.4 1837.32 691.8 1835.19 693.8C1833.19 695.667 1832.19 698.333 1832.19 701.8C1832.19 706.2 1833.72 709.8 1836.79 712.6C1839.85 715.4 1844.12 716.8 1849.59 716.8C1853.99 716.8 1857.85 715.8 1861.19 713.8C1864.65 711.667 1867.39 708.8 1869.39 705.2C1871.39 701.6 1872.39 697.467 1872.39 692.8V669.8C1872.39 663.133 1870.92 658.333 1867.99 655.4C1865.05 652.467 1860.12 651 1853.19 651C1849.32 651 1845.12 651.467 1840.59 652.4C1836.19 653.333 1831.52 654.933 1826.59 657.2C1824.05 658.4 1821.79 658.733 1819.79 658.2C1817.92 657.667 1816.45 656.6 1815.39 655C1814.32 653.267 1813.79 651.4 1813.79 649.4C1813.79 647.4 1814.32 645.467 1815.39 643.6C1816.45 641.6 1818.25 640.133 1820.79 639.2C1826.92 636.667 1832.79 634.867 1838.39 633.8C1844.12 632.733 1849.32 632.2 1853.99 632.2C1863.59 632.2 1871.45 633.667 1877.59 636.6C1883.85 639.533 1888.52 644 1891.59 650C1894.65 655.867 1896.19 663.467 1896.19 672.8V720.8C1896.19 724.933 1895.19 728.133 1893.19 730.4C1891.19 732.533 1888.32 733.6 1884.59 733.6C1880.85 733.6 1877.92 732.533 1875.79 730.4C1873.79 728.133 1872.79 724.933 1872.79 720.8V711.2H1874.39C1873.45 715.867 1871.59 719.933 1868.79 723.4C1866.12 726.733 1862.72 729.333 1858.59 731.2C1854.45 733.067 1849.72 734 1844.39 734ZM1966.36 734C1957.7 734 1950.43 732.533 1944.56 729.6C1938.83 726.667 1934.56 722.4 1931.76 716.8C1928.96 711.067 1927.56 704 1927.56 695.6V653H1917.16C1913.96 653 1911.5 652.2 1909.76 650.6C1908.03 648.867 1907.16 646.533 1907.16 643.6C1907.16 640.533 1908.03 638.2 1909.76 636.6C1911.5 635 1913.96 634.2 1917.16 634.2H1927.56V616C1927.56 611.867 1928.63 608.733 1930.76 606.6C1933.03 604.467 1936.16 603.4 1940.16 603.4C1944.16 603.4 1947.23 604.467 1949.36 606.6C1951.5 608.733 1952.56 611.867 1952.56 616V634.2H1973.76C1976.96 634.2 1979.43 635 1981.16 636.6C1982.9 638.2 1983.76 640.533 1983.76 643.6C1983.76 646.533 1982.9 648.867 1981.16 650.6C1979.43 652.2 1976.96 653 1973.76 653H1952.56V694.2C1952.56 700.6 1953.96 705.4 1956.76 708.6C1959.56 711.8 1964.1 713.4 1970.36 713.4C1972.63 713.4 1974.63 713.2 1976.36 712.8C1978.1 712.4 1979.63 712.133 1980.96 712C1982.56 711.867 1983.9 712.4 1984.96 713.6C1986.03 714.667 1986.56 716.933 1986.56 720.4C1986.56 723.067 1986.1 725.467 1985.16 727.6C1984.36 729.6 1982.83 731 1980.56 731.8C1978.83 732.333 1976.56 732.8 1973.76 733.2C1970.96 733.733 1968.5 734 1966.36 734ZM2017.04 753.4C2015.3 755.533 2013.44 756.733 2011.44 757C2009.57 757.4 2007.9 757.067 2006.44 756C2004.97 754.933 2004.17 753.4 2004.04 751.4C2003.9 749.533 2004.77 747.467 2006.64 745.2C2009.3 741.867 2011.1 738.533 2012.04 735.2C2012.97 731.867 2013.44 728.867 2013.44 726.2L2014.44 733C2009.77 733 2005.97 731.667 2003.04 729C2000.24 726.2 1998.84 722.533 1998.84 718C1998.84 713.733 2000.17 710.267 2002.84 707.6C2005.5 704.8 2009.1 703.4 2013.64 703.4C2018.3 703.4 2021.97 705 2024.64 708.2C2027.3 711.267 2028.64 715.733 2028.64 721.6C2028.64 724.8 2028.3 728.133 2027.64 731.6C2027.1 734.933 2025.97 738.4 2024.24 742C2022.64 745.733 2020.24 749.533 2017.04 753.4ZM2737.37 732C2732.97 732 2729.57 730.867 2727.17 728.6C2724.9 726.2 2723.77 722.8 2723.77 718.4V604.6C2723.77 600.2 2724.9 596.867 2727.17 594.6C2729.57 592.2 2732.97 591 2737.37 591H2785.37C2795.23 591 2803.63 592.467 2810.57 595.4C2817.5 598.333 2822.77 602.533 2826.37 608C2830.1 613.467 2831.97 620 2831.97 627.6C2831.97 636.133 2829.5 643.333 2824.57 649.2C2819.63 655.067 2812.9 659 2804.37 661V658C2814.23 659.467 2821.9 663.2 2827.37 669.2C2832.83 675.2 2835.57 683 2835.57 692.6C2835.57 705.133 2831.3 714.867 2822.77 721.8C2814.37 728.6 2802.63 732 2787.57 732H2737.37ZM2748.37 712.6H2784.37C2793.43 712.6 2800.1 710.867 2804.37 707.4C2808.63 703.8 2810.77 698.467 2810.77 691.4C2810.77 684.2 2808.63 678.867 2804.37 675.4C2800.1 671.933 2793.43 670.2 2784.37 670.2H2748.37V712.6ZM2748.37 650.8H2780.97C2789.77 650.8 2796.3 649.133 2800.57 645.8C2804.97 642.333 2807.17 637.267 2807.17 630.6C2807.17 623.933 2804.97 618.933 2800.57 615.6C2796.3 612.133 2789.77 610.4 2780.97 610.4H2748.37V650.8ZM2891.26 734C2884.2 734 2877.86 732.667 2872.26 730C2866.8 727.2 2862.46 723.467 2859.26 718.8C2856.2 714.133 2854.66 708.867 2854.66 703C2854.66 695.8 2856.53 690.133 2860.26 686C2864 681.733 2870.06 678.667 2878.46 676.8C2886.86 674.933 2898.13 674 2912.26 674H2922.26V688.4H2912.46C2904.2 688.4 2897.6 688.8 2892.66 689.6C2887.73 690.4 2884.2 691.8 2882.06 693.8C2880.06 695.667 2879.06 698.333 2879.06 701.8C2879.06 706.2 2880.6 709.8 2883.66 712.6C2886.73 715.4 2891 716.8 2896.46 716.8C2900.86 716.8 2904.73 715.8 2908.06 713.8C2911.53 711.667 2914.26 708.8 2916.26 705.2C2918.26 701.6 2919.26 697.467 2919.26 692.8V669.8C2919.26 663.133 2917.8 658.333 2914.86 655.4C2911.93 652.467 2907 651 2900.06 651C2896.2 651 2892 651.467 2887.46 652.4C2883.06 653.333 2878.4 654.933 2873.46 657.2C2870.93 658.4 2868.66 658.733 2866.66 658.2C2864.8 657.667 2863.33 656.6 2862.26 655C2861.2 653.267 2860.66 651.4 2860.66 649.4C2860.66 647.4 2861.2 645.467 2862.26 643.6C2863.33 641.6 2865.13 640.133 2867.66 639.2C2873.8 636.667 2879.66 634.867 2885.26 633.8C2891 632.733 2896.2 632.2 2900.86 632.2C2910.46 632.2 2918.33 633.667 2924.46 636.6C2930.73 639.533 2935.4 644 2938.46 650C2941.53 655.867 2943.06 663.467 2943.06 672.8V720.8C2943.06 724.933 2942.06 728.133 2940.06 730.4C2938.06 732.533 2935.2 733.6 2931.46 733.6C2927.73 733.6 2924.8 732.533 2922.66 730.4C2920.66 728.133 2919.66 724.933 2919.66 720.8V711.2H2921.26C2920.33 715.867 2918.46 719.933 2915.66 723.4C2913 726.733 2909.6 729.333 2905.46 731.2C2901.33 733.067 2896.6 734 2891.26 734ZM2980.84 733.6C2976.84 733.6 2973.77 732.533 2971.64 730.4C2969.5 728.133 2968.44 724.933 2968.44 720.8V602C2968.44 597.867 2969.5 594.733 2971.64 592.6C2973.77 590.467 2976.84 589.4 2980.84 589.4C2984.84 589.4 2987.9 590.467 2990.04 592.6C2992.3 594.733 2993.44 597.867 2993.44 602V653.8H2990.64C2993.57 646.733 2998.1 641.4 3004.24 637.8C3010.5 634.067 3017.57 632.2 3025.44 632.2C3033.3 632.2 3039.77 633.667 3044.84 636.6C3049.9 639.533 3053.7 644 3056.24 650C3058.77 655.867 3060.04 663.333 3060.04 672.4V720.8C3060.04 724.933 3058.97 728.133 3056.84 730.4C3054.7 732.533 3051.64 733.6 3047.64 733.6C3043.64 733.6 3040.5 732.533 3038.24 730.4C3036.1 728.133 3035.04 724.933 3035.04 720.8V673.6C3035.04 666 3033.57 660.467 3030.64 657C3027.84 653.533 3023.44 651.8 3017.44 651.8C3010.1 651.8 3004.24 654.133 2999.84 658.8C2995.57 663.333 2993.44 669.4 2993.44 677V720.8C2993.44 729.333 2989.24 733.6 2980.84 733.6ZM3117.63 734C3110.56 734 3104.23 732.667 3098.63 730C3093.16 727.2 3088.83 723.467 3085.63 718.8C3082.56 714.133 3081.03 708.867 3081.03 703C3081.03 695.8 3082.9 690.133 3086.63 686C3090.36 681.733 3096.43 678.667 3104.83 676.8C3113.23 674.933 3124.5 674 3138.63 674H3148.63V688.4H3138.83C3130.56 688.4 3123.96 688.8 3119.03 689.6C3114.1 690.4 3110.56 691.8 3108.43 693.8C3106.43 695.667 3105.43 698.333 3105.43 701.8C3105.43 706.2 3106.96 709.8 3110.03 712.6C3113.1 715.4 3117.36 716.8 3122.83 716.8C3127.23 716.8 3131.1 715.8 3134.43 713.8C3137.9 711.667 3140.63 708.8 3142.63 705.2C3144.63 701.6 3145.63 697.467 3145.63 692.8V669.8C3145.63 663.133 3144.16 658.333 3141.23 655.4C3138.3 652.467 3133.36 651 3126.43 651C3122.56 651 3118.36 651.467 3113.83 652.4C3109.43 653.333 3104.76 654.933 3099.83 657.2C3097.3 658.4 3095.03 658.733 3093.03 658.2C3091.16 657.667 3089.7 656.6 3088.63 655C3087.56 653.267 3087.03 651.4 3087.03 649.4C3087.03 647.4 3087.56 645.467 3088.63 643.6C3089.7 641.6 3091.5 640.133 3094.03 639.2C3100.16 636.667 3106.03 634.867 3111.63 633.8C3117.36 632.733 3122.56 632.2 3127.23 632.2C3136.83 632.2 3144.7 633.667 3150.83 636.6C3157.1 639.533 3161.76 644 3164.83 650C3167.9 655.867 3169.43 663.467 3169.43 672.8V720.8C3169.43 724.933 3168.43 728.133 3166.43 730.4C3164.43 732.533 3161.56 733.6 3157.83 733.6C3154.1 733.6 3151.16 732.533 3149.03 730.4C3147.03 728.133 3146.03 724.933 3146.03 720.8V711.2H3147.63C3146.7 715.867 3144.83 719.933 3142.03 723.4C3139.36 726.733 3135.96 729.333 3131.83 731.2C3127.7 733.067 3122.96 734 3117.63 734ZM3240.4 770C3233.2 770 3226.2 769.333 3219.4 768C3212.74 766.667 3206.67 764.6 3201.2 761.8C3198.67 760.467 3196.94 758.867 3196 757C3195.2 755.133 3194.94 753.2 3195.2 751.2C3195.6 749.333 3196.4 747.667 3197.6 746.2C3198.94 744.733 3200.54 743.733 3202.4 743.2C3204.27 742.667 3206.2 742.933 3208.2 744C3214.07 746.933 3219.6 748.8 3224.8 749.6C3230.14 750.533 3234.67 751 3238.4 751C3247.34 751 3254 748.8 3258.4 744.4C3262.94 740.133 3265.2 733.733 3265.2 725.2V707.2H3267C3265 714 3260.8 719.467 3254.4 723.6C3248.14 727.6 3241 729.6 3233 729.6C3224.2 729.6 3216.54 727.6 3210 723.6C3203.47 719.467 3198.4 713.733 3194.8 706.4C3191.2 699.067 3189.4 690.533 3189.4 680.8C3189.4 673.467 3190.4 666.867 3192.4 661C3194.54 655 3197.47 649.867 3201.2 645.6C3205.07 641.333 3209.67 638.067 3215 635.8C3220.47 633.4 3226.47 632.2 3233 632.2C3241.27 632.2 3248.47 634.267 3254.6 638.4C3260.87 642.4 3264.94 647.733 3266.8 654.4L3264.8 659.4V645.2C3264.8 641.067 3265.87 637.933 3268 635.8C3270.27 633.667 3273.34 632.6 3277.2 632.6C3281.2 632.6 3284.27 633.667 3286.4 635.8C3288.54 637.933 3289.6 641.067 3289.6 645.2V722.2C3289.6 738.067 3285.4 750 3277 758C3268.6 766 3256.4 770 3240.4 770ZM3239.8 710.6C3245 710.6 3249.47 709.4 3253.2 707C3256.94 704.6 3259.8 701.2 3261.8 696.8C3263.94 692.267 3265 686.933 3265 680.8C3265 671.6 3262.74 664.4 3258.2 659.2C3253.67 653.867 3247.54 651.2 3239.8 651.2C3234.6 651.2 3230.14 652.4 3226.4 654.8C3222.67 657.2 3219.74 660.6 3217.6 665C3215.6 669.4 3214.6 674.667 3214.6 680.8C3214.6 690 3216.87 697.267 3221.4 702.6C3225.94 707.933 3232.07 710.6 3239.8 710.6ZM3327.91 733.4C3323.91 733.4 3320.84 732.2 3318.71 729.8C3316.57 727.4 3315.51 724.067 3315.51 719.8V646.4C3315.51 642 3316.57 638.667 3318.71 636.4C3320.84 634 3323.91 632.8 3327.91 632.8C3331.91 632.8 3334.97 634 3337.11 636.4C3339.37 638.667 3340.51 642 3340.51 646.4V719.8C3340.51 724.067 3339.44 727.4 3337.31 729.8C3335.17 732.2 3332.04 733.4 3327.91 733.4ZM3327.91 614.2C3323.24 614.2 3319.57 613.067 3316.91 610.8C3314.37 608.4 3313.11 605.133 3313.11 601C3313.11 596.733 3314.37 593.467 3316.91 591.2C3319.57 588.933 3323.24 587.8 3327.91 587.8C3332.71 587.8 3336.37 588.933 3338.91 591.2C3341.44 593.467 3342.71 596.733 3342.71 601C3342.71 605.133 3341.44 608.4 3338.91 610.8C3336.37 613.067 3332.71 614.2 3327.91 614.2ZM3398.68 734C3391.62 734 3385.28 732.667 3379.68 730C3374.22 727.2 3369.88 723.467 3366.68 718.8C3363.62 714.133 3362.08 708.867 3362.08 703C3362.08 695.8 3363.95 690.133 3367.68 686C3371.42 681.733 3377.48 678.667 3385.88 676.8C3394.28 674.933 3405.55 674 3419.68 674H3429.68V688.4H3419.88C3411.62 688.4 3405.02 688.8 3400.08 689.6C3395.15 690.4 3391.62 691.8 3389.48 693.8C3387.48 695.667 3386.48 698.333 3386.48 701.8C3386.48 706.2 3388.02 709.8 3391.08 712.6C3394.15 715.4 3398.42 716.8 3403.88 716.8C3408.28 716.8 3412.15 715.8 3415.48 713.8C3418.95 711.667 3421.68 708.8 3423.68 705.2C3425.68 701.6 3426.68 697.467 3426.68 692.8V669.8C3426.68 663.133 3425.22 658.333 3422.28 655.4C3419.35 652.467 3414.42 651 3407.48 651C3403.62 651 3399.42 651.467 3394.88 652.4C3390.48 653.333 3385.82 654.933 3380.88 657.2C3378.35 658.4 3376.08 658.733 3374.08 658.2C3372.22 657.667 3370.75 656.6 3369.68 655C3368.62 653.267 3368.08 651.4 3368.08 649.4C3368.08 647.4 3368.62 645.467 3369.68 643.6C3370.75 641.6 3372.55 640.133 3375.08 639.2C3381.22 636.667 3387.08 634.867 3392.68 633.8C3398.42 632.733 3403.62 632.2 3408.28 632.2C3417.88 632.2 3425.75 633.667 3431.88 636.6C3438.15 639.533 3442.82 644 3445.88 650C3448.95 655.867 3450.48 663.467 3450.48 672.8V720.8C3450.48 724.933 3449.48 728.133 3447.48 730.4C3445.48 732.533 3442.62 733.6 3438.88 733.6C3435.15 733.6 3432.22 732.533 3430.08 730.4C3428.08 728.133 3427.08 724.933 3427.08 720.8V711.2H3428.68C3427.75 715.867 3425.88 719.933 3423.08 723.4C3420.42 726.733 3417.02 729.333 3412.88 731.2C3408.75 733.067 3404.02 734 3398.68 734Z" fill="#FBA600"/>
<rect x="20" y="56" width="692" height="692" rx="100" fill="#FBA600"/>
<g filter="url(#filter0_d_46_3)">
<path fill-rule="evenodd" clip-rule="evenodd" d="M120 56C64.7715 56 20 100.772 20 156V648C20 703.228 64.7715 748 120 748H213.112C223.615 718.802 247.769 675.205 329.336 587.037C348.145 566.648 357.283 557.765 374.905 540.635L374.907 540.633C387.632 528.263 404.781 511.592 433.189 483.184C557.812 359.055 574.627 333.586 587.237 310.59C603.804 280.176 625.07 230.97 631.993 160.251C634.96 165.938 638.422 173.603 641.636 183C641.636 183 647.324 198.825 650.538 217.617C661.418 279.682 648.313 337.542 648.313 337.542C643.229 364.287 623.723 401.7 608.69 430.532L608.667 430.578C606.891 433.984 605.177 437.271 603.557 440.406C588.226 470.326 520.475 561.568 520.475 561.568C520.475 561.568 420.578 691.631 383.982 738.86C381.581 741.959 379.294 745.006 377.115 748H612C667.228 748 712 703.228 712 648V156C712 100.772 667.228 56 612 56H120ZM316.725 349.164C316.725 387.948 348.166 419.389 386.949 419.389C425.733 419.389 457.174 387.948 457.174 349.164C457.174 310.38 425.733 278.94 386.949 278.94C348.166 278.94 316.725 310.38 316.725 349.164ZM274.443 599.153C277.904 570.47 281.119 508.9 251.694 446.588C246.254 435.214 233.89 409.498 208.916 382.793C190.371 363.011 173.062 351.39 156.001 340.263C138.197 328.641 112.481 313.558 78.6057 300.7C98.6344 298.227 142.154 296.002 190.124 317.514C203.229 323.448 250.705 345.455 280.13 394.909C334.282 486.398 277.904 592.724 274.443 599.153Z" fill="white"/>
</g>
<defs>
<filter id="filter0_d_46_3" x="0" y="40" width="732" height="732" filterUnits="userSpaceOnUse" color-interpolation-filters="sRGB">
<feFlood flood-opacity="0" result="BackgroundImageFix"/>
<feColorMatrix in="SourceAlpha" type="matrix" values="0 0 0 0 0 0 0 0 0 0 0 0 0 0 0 0 0 0 127 0" result="hardAlpha"/>
<feOffset dy="4"/>
<feGaussianBlur stdDeviation="10"/>
<feComposite in2="hardAlpha" operator="out"/>
<feColorMatrix type="matrix" values="0 0 0 0 0 0 0 0 0 0 0 0 0 0 0 0 0 0 0.35 0"/>
<feBlend mode="normal" in2="BackgroundImageFix" result="effect1_dropShadow_46_3"/>
<feBlend mode="normal" in="SourceGraphic" in2="effect1_dropShadow_46_3" result="shape"/>
</filter>
</defs>
</svg>
